<svg width="180" height="40" viewBox="0 0 180 40" fill="none" xmlns="http://www.w3.org/2000/svg">
<path d="M15.792 39.832C15.056 39.832 14.32 39.544 13.584 38.968C12.848 38.392 12.32 37.512 12 36.328C11.68 35.112 11.456 33.72 11.328 32.152C11.2 30.552 11.136 28.872 11.136 27.112C11.136 24.616 11.248 22.072 11.472 19.48C11.696 16.856 11.984 14.376 12.336 12.04C12.72 9.704 13.12 7.736 13.536 6.136C12.992 6.232 12.496 6.312 12.048 6.376C11.6 6.44 11.216 6.504 10.896 6.568C9.264 6.856 7.776 7.192 6.432 7.576C5.12 7.96 4.064 8.392 3.264 8.872C2.496 9.352 2.112 9.896 2.112 10.504C2.112 10.696 2.192 10.952 2.352 11.272C2.416 11.4 2.448 11.512 2.448 11.608C2.448 11.832 2.352 11.944 2.16 11.944C1.904 11.944 1.584 11.752 1.2 11.368C0.912 11.112 0.656 10.696 0.432 10.12C0.24 9.544 0.144 8.968 0.144 8.392C0.144 7.56 0.368 6.92 0.816 6.472C1.392 5.896 2.496 5.384 4.128 4.936C5.792 4.488 7.664 4.12 9.744 3.832C10.48 3.736 11.472 3.64 12.72 3.544C13.968 3.448 15.328 3.4 16.8 3.4C18.688 3.4 20.64 3.512 22.656 3.736C24.672 3.96 26.544 4.344 28.272 4.888C30.032 5.432 31.456 6.216 32.544 7.24C33.632 8.232 34.176 9.512 34.176 11.08C34.176 12.84 33.76 14.568 32.928 16.264C32.096 17.928 30.928 19.432 29.424 20.776C27.92 22.12 26.16 23.192 24.144 23.992C22.128 24.76 19.936 25.144 17.568 25.144C17.056 25.144 16.544 25.128 16.032 25.096C15.552 25.064 15.04 25 14.496 24.904C14.432 25.512 14.384 26.12 14.352 26.728C14.32 27.336 14.288 27.928 14.256 28.504C14.256 28.824 14.24 29.176 14.208 29.56C14.208 29.944 14.208 30.344 14.208 30.76C14.208 31.816 14.256 32.888 14.352 33.976C14.48 35.064 14.704 35.976 15.024 36.712C15.344 37.416 15.824 37.768 16.464 37.768C16.784 37.768 17.12 37.704 17.472 37.576C17.824 37.448 18.048 37.32 18.144 37.192H18.48C18.416 38.056 18.112 38.712 17.568 39.16C17.056 39.608 16.464 39.832 15.792 39.832ZM14.688 22.936H15.312C17.2 22.936 19.136 22.632 21.12 22.024C23.104 21.384 24.928 20.504 26.592 19.384C28.256 18.264 29.6 16.952 30.624 15.448C31.648 13.912 32.16 12.248 32.16 10.456C32.16 9.144 31.648 8.136 30.624 7.432C29.632 6.728 28.336 6.248 26.736 5.992C25.136 5.704 23.44 5.56 21.648 5.56C20.944 5.56 20.24 5.576 19.536 5.608C18.832 5.64 18.144 5.688 17.472 5.752L17.616 6.04C17.52 6.456 17.344 7.224 17.088 8.344C16.864 9.432 16.592 10.76 16.272 12.328C15.984 13.864 15.696 15.544 15.408 17.368C15.12 19.192 14.88 21.048 14.688 22.936ZM41.1525 37.912C39.5845 37.912 38.2405 37.544 37.1205 36.808C36.0325 36.072 35.1845 35.096 34.5765 33.88C34.0005 32.632 33.6805 31.288 33.6165 29.848V28.888C33.6165 27.352 33.7765 25.816 34.0965 24.28C34.4485 22.744 34.9765 21.336 35.6805 20.056C36.3845 18.776 37.2805 17.752 38.3685 16.984C39.4565 16.184 40.7525 15.784 42.2565 15.784H42.5925C43.4885 15.816 44.1285 16.152 44.5125 16.792C44.9285 17.432 45.1365 18.12 45.1365 18.856V19.048C45.1365 20.776 44.7365 22.28 43.9365 23.56C43.1685 24.808 42.1925 25.816 41.0085 26.584C39.8245 27.352 38.5925 27.88 37.3125 28.168V28.408C37.3125 29.208 37.3765 30.072 37.5045 31C37.6325 31.896 37.8725 32.76 38.2245 33.592C38.5765 34.424 39.0725 35.112 39.7125 35.656C40.3525 36.168 41.1685 36.424 42.1605 36.424C43.3765 36.424 44.4005 36.04 45.2325 35.272C46.0645 34.504 46.7045 33.592 47.1525 32.536C47.3445 32.088 47.5045 31.592 47.6325 31.048C47.7925 30.472 47.9365 29.864 48.0645 29.224C48.1285 28.84 48.2565 28.648 48.4485 28.648C48.7045 28.648 48.8325 28.92 48.8325 29.464C48.8325 29.56 48.8165 29.672 48.7845 29.8C48.7845 29.896 48.7685 30.024 48.7365 30.184C48.5445 31.304 48.2725 32.296 47.9205 33.16C47.2805 34.824 46.4325 36.04 45.3765 36.808C44.3525 37.544 42.9445 37.912 41.1525 37.912ZM37.3605 27.112C38.3525 26.824 39.2165 26.312 39.9525 25.576C40.7205 24.808 41.3285 23.912 41.7765 22.888C42.2245 21.864 42.4645 20.824 42.4965 19.768V19.48C42.4965 18.936 42.4005 18.408 42.2085 17.896C42.0165 17.384 41.6965 17.128 41.2485 17.128H41.2005C40.6245 17.128 40.1125 17.416 39.6645 17.992C39.2485 18.536 38.8965 19.24 38.6085 20.104C38.3205 20.968 38.0805 21.864 37.8885 22.792C37.6965 23.72 37.5525 24.568 37.4565 25.336C37.3925 26.104 37.3605 26.664 37.3605 27.016V27.112ZM54.678 37.336C53.206 37.336 52.022 36.984 51.126 36.28C50.262 35.576 49.622 34.664 49.206 33.544C48.822 32.392 48.582 31.176 48.486 29.896C48.454 29.64 48.438 29.368 48.438 29.08C48.438 28.792 48.438 28.52 48.438 28.264C48.438 26.76 48.598 25.256 48.918 23.752C49.238 22.248 49.734 20.888 50.406 19.672C51.11 18.424 51.99 17.432 53.046 16.696C54.134 15.928 55.43 15.544 56.934 15.544C57.862 15.544 58.534 15.88 58.95 16.552C59.398 17.224 59.622 17.928 59.622 18.664C59.622 20.36 59.254 21.848 58.518 23.128C57.814 24.408 56.886 25.464 55.734 26.296C54.614 27.128 53.43 27.72 52.182 28.072C52.214 29.032 52.326 30.088 52.518 31.24C52.742 32.36 53.142 33.336 53.718 34.168C54.294 34.968 55.126 35.368 56.214 35.368C57.238 35.368 58.102 35.064 58.806 34.456C59.51 33.816 60.086 33 60.534 32.008C60.982 30.984 61.318 29.896 61.542 28.744C61.798 27.592 61.99 26.488 62.118 25.432C62.246 24.344 62.342 23.448 62.406 22.744C62.47 22.072 62.518 21.416 62.55 20.776C62.582 20.104 62.598 19.464 62.598 18.856C62.598 18.472 62.598 18.088 62.598 17.704C62.598 17.32 62.566 16.968 62.502 16.648C61.83 16.136 61.318 15.512 60.966 14.776C60.646 14.008 60.486 13.288 60.486 12.616C60.486 12.008 60.614 11.496 60.87 11.08C61.158 10.664 61.574 10.456 62.118 10.456C62.47 10.456 62.822 10.712 63.174 11.224C63.526 11.736 63.766 12.52 63.894 13.576C63.958 13.896 63.99 14.248 63.99 14.632C63.99 15.016 63.99 15.432 63.99 15.88V16.936C64.342 17.16 64.742 17.336 65.19 17.464C65.67 17.592 66.102 17.656 66.486 17.656C66.806 17.656 67.11 17.608 67.398 17.512C67.686 17.416 67.926 17.256 68.118 17.032C68.374 16.68 68.63 16.344 68.886 16.024C69.174 15.672 69.734 15.48 70.566 15.448H70.902C71.126 15.448 71.366 15.464 71.622 15.496C71.878 15.528 72.166 15.576 72.486 15.64C72.102 16.44 71.782 17.464 71.526 18.712C71.27 19.96 71.046 21.304 70.854 22.744C70.694 24.152 70.566 25.512 70.47 26.824C70.406 28.104 70.374 29.208 70.374 30.136V30.568C70.374 31.912 70.534 33.096 70.854 34.12C71.174 35.112 71.734 35.608 72.534 35.608C73.046 35.608 73.494 35.4 73.878 34.984C74.262 34.568 74.598 34.056 74.886 33.448C75.174 32.808 75.414 32.2 75.606 31.624C75.798 31.016 75.942 30.536 76.038 30.184C76.102 29.896 76.23 29.752 76.422 29.752C76.582 29.752 76.662 29.928 76.662 30.28V30.52C76.438 32.728 75.814 34.408 74.79 35.56C73.798 36.68 72.598 37.24 71.19 37.24C70.486 37.24 69.894 37.096 69.414 36.808C68.966 36.52 68.566 36.12 68.214 35.608C67.702 34.84 67.35 33.784 67.158 32.44C66.966 31.096 66.87 29.656 66.87 28.12C66.87 26.392 66.966 24.696 67.158 23.032C67.35 21.368 67.558 19.992 67.782 18.904C67.654 18.936 67.526 18.968 67.398 19C67.27 19 67.142 19 67.014 19C66.47 19 65.926 18.904 65.382 18.712C64.87 18.52 64.39 18.264 63.942 17.944C63.91 18.744 63.846 19.576 63.75 20.44C63.654 21.272 63.558 22.104 63.462 22.936C63.334 23.992 63.158 25.208 62.934 26.584C62.742 27.928 62.438 29.272 62.022 30.616C61.638 31.96 61.094 33.176 60.39 34.264C59.718 35.352 58.838 36.168 57.75 36.712C56.886 37.128 55.862 37.336 54.678 37.336ZM52.182 26.968C53.174 26.648 54.022 26.104 54.726 25.336C55.462 24.568 56.022 23.672 56.406 22.648C56.822 21.592 57.03 20.536 57.03 19.48C57.03 18.872 56.934 18.296 56.742 17.752C56.55 17.176 56.182 16.888 55.638 16.888C55.062 16.888 54.566 17.176 54.15 17.752C53.766 18.296 53.446 19 53.19 19.864C52.934 20.696 52.742 21.576 52.614 22.504C52.486 23.432 52.39 24.28 52.326 25.048C52.262 25.784 52.23 26.328 52.23 26.68C52.198 26.744 52.182 26.84 52.182 26.968ZM89.8815 38.824C87.8335 38.824 85.9295 38.424 84.1695 37.624C82.4095 36.824 80.9535 35.576 79.8015 33.88C78.6495 32.152 77.9295 29.928 77.6415 27.208C77.6095 26.856 77.5775 26.504 77.5455 26.152C77.5455 25.8 77.5455 25.464 77.5455 25.144C77.5455 23 77.8655 20.872 78.5055 18.76C79.1775 16.616 80.1055 14.6 81.2895 12.712C82.4735 10.824 83.8815 9.144 85.5135 7.672C87.1455 6.2 88.9375 5.048 90.8895 4.216C92.8735 3.352 94.9695 2.92 97.1775 2.92H97.8975C99.0495 2.952 100.121 3.16 101.113 3.544C102.137 3.928 102.953 4.536 103.561 5.368C104.201 6.168 104.521 7.272 104.521 8.68C104.521 10.248 104.057 11.784 103.129 13.288C102.201 14.76 100.969 16.104 99.4335 17.32C97.8975 18.536 96.2015 19.512 94.3455 20.248C92.4895 20.952 90.6175 21.304 88.7295 21.304C88.6015 21.304 88.4735 21.304 88.3455 21.304C88.2175 21.272 88.0735 21.256 87.9135 21.256C87.4975 21.224 87.1935 21.064 87.0015 20.776C86.8415 20.488 86.7615 20.248 86.7615 20.056C88.7775 20.056 90.7615 19.736 92.7135 19.096C94.6975 18.456 96.4735 17.48 98.0415 16.168C99.6415 14.824 100.873 13.112 101.737 11.032C102.185 9.944 102.409 8.952 102.409 8.056C102.409 7.128 102.121 6.36 101.545 5.752C101.001 5.112 100.057 4.76 98.7135 4.696H98.3775C97.0975 4.696 95.7055 5.064 94.2015 5.8C92.6975 6.504 91.2095 7.512 89.7375 8.824C88.2655 10.136 86.9215 11.688 85.7055 13.48C84.5215 15.272 83.5615 17.272 82.8255 19.48C82.0895 21.656 81.7215 23.976 81.7215 26.44V26.872C81.7215 29.4 82.1055 31.416 82.8735 32.92C83.6735 34.392 84.7295 35.448 86.0415 36.088C87.3855 36.728 88.8415 37.048 90.4095 37.048C90.6655 37.048 90.9055 37.048 91.1295 37.048C91.3855 37.048 91.6255 37.032 91.8495 37C93.4495 36.84 95.0495 36.36 96.6495 35.56C98.2495 34.728 99.7375 33.704 101.113 32.488C102.489 31.272 103.625 29.944 104.521 28.504C105.449 27.064 106.009 25.656 106.201 24.28C106.233 24.12 106.313 24.04 106.441 24.04C106.569 24.04 106.697 24.088 106.825 24.184C106.953 24.28 107.017 24.392 107.017 24.52V24.568C107.017 26.008 106.713 27.336 106.105 28.552C105.529 29.768 104.857 30.888 104.089 31.912C102.649 33.832 100.793 35.384 98.5215 36.568C96.2815 37.752 93.9775 38.472 91.6095 38.728C91.3215 38.76 91.0335 38.776 90.7455 38.776C90.4575 38.808 90.1695 38.824 89.8815 38.824ZM113.568 12.712C112.96 12.712 112.416 12.488 111.936 12.04C111.488 11.592 111.264 11.048 111.264 10.408C111.264 9.768 111.488 9.224 111.936 8.776C112.416 8.328 112.96 8.104 113.568 8.104C114.208 8.104 114.752 8.328 115.2 8.776C115.648 9.224 115.872 9.768 115.872 10.408C115.872 11.048 115.648 11.592 115.2 12.04C114.752 12.488 114.208 12.712 113.568 12.712ZM114.144 37.48C112.992 37.48 112.048 37.08 111.312 36.28C110.608 35.48 110.064 34.504 109.68 33.352C109.328 32.168 109.072 31.032 108.912 29.944C108.816 29.208 108.752 28.52 108.72 27.88C108.72 27.208 108.72 26.552 108.72 25.912C108.784 24.088 108.944 22.408 109.2 20.872C109.488 19.336 109.776 18.296 110.064 17.752C110.256 17.368 110.56 17.016 110.976 16.696C111.424 16.344 112.016 16.168 112.752 16.168C113.168 16.168 113.584 16.216 114 16.312C113.68 17.432 113.296 19 112.848 21.016C112.4 23 112.176 25.192 112.176 27.592C112.176 28.808 112.256 30.04 112.416 31.288C112.576 32.536 112.88 33.592 113.328 34.456C113.808 35.288 114.464 35.704 115.296 35.704C115.968 35.704 116.56 35.448 117.072 34.936C117.712 34.328 118.192 33.512 118.512 32.488C118.864 31.464 119.168 30.424 119.424 29.368C119.52 28.92 119.68 28.696 119.904 28.696C120.128 28.696 120.24 28.888 120.24 29.272C120.24 29.368 120.224 29.48 120.192 29.608C120.192 29.736 120.176 29.88 120.144 30.04C119.952 31.128 119.616 32.248 119.136 33.4C118.688 34.552 118.064 35.528 117.264 36.328C116.464 37.096 115.424 37.48 114.144 37.48ZM129.162 37.24C128.106 37.24 127.274 36.904 126.666 36.232C126.058 35.528 125.626 34.632 125.37 33.544C125.146 32.424 125.034 31.224 125.034 29.944C125.034 28.568 125.114 27.224 125.274 25.912C125.466 24.568 125.658 23.384 125.85 22.36C126.074 21.336 126.234 20.632 126.33 20.248C125.434 20.184 124.73 20.04 124.218 19.816C123.706 19.592 123.274 19.32 122.922 19C122.794 20.536 122.586 22.184 122.298 23.944C122.042 25.704 121.738 27.4 121.386 29.032C121.034 30.632 120.65 32.008 120.234 33.16C120.106 33.576 119.898 33.784 119.61 33.784C119.386 33.784 119.274 33.64 119.274 33.352C119.274 33.288 119.274 33.208 119.274 33.112C119.306 33.016 119.338 32.92 119.37 32.824C119.882 31.352 120.314 29.752 120.666 28.024C121.018 26.264 121.29 24.568 121.482 22.936C121.674 21.304 121.77 19.944 121.77 18.856V18.328C120.97 17.976 120.378 17.464 119.994 16.792C119.642 16.12 119.466 15.48 119.466 14.872C119.466 14.424 119.546 14.024 119.706 13.672C119.898 13.32 120.17 13.144 120.522 13.144H120.618C121.066 13.144 121.466 13.464 121.818 14.104C122.17 14.712 122.458 15.4 122.682 16.168C122.906 16.904 123.018 17.496 123.018 17.944C123.402 18.232 123.818 18.44 124.266 18.568C124.746 18.696 125.146 18.76 125.466 18.76C125.882 18.76 126.154 18.696 126.282 18.568C126.538 18.312 126.842 17.944 127.194 17.464C127.578 16.984 128.17 16.744 128.97 16.744C129.514 16.744 130.17 16.904 130.938 17.224C130.554 18.024 130.202 18.936 129.882 19.96C129.562 20.952 129.29 22.008 129.066 23.128C129.034 23.384 128.954 23.896 128.826 24.664C128.698 25.432 128.586 26.312 128.49 27.304C128.394 28.296 128.346 29.288 128.346 30.28C128.346 31.688 128.49 32.936 128.778 34.024C129.098 35.08 129.674 35.608 130.506 35.608C131.018 35.608 131.466 35.4 131.85 34.984C132.234 34.568 132.57 34.056 132.858 33.448C133.146 32.808 133.386 32.2 133.578 31.624C133.77 31.016 133.914 30.536 134.01 30.184C134.074 29.896 134.202 29.752 134.394 29.752C134.554 29.752 134.634 29.928 134.634 30.28V30.52C134.634 31.992 134.362 33.24 133.818 34.264C133.306 35.256 132.634 36.008 131.802 36.52C130.97 37 130.09 37.24 129.162 37.24ZM141.216 37.912C139.744 37.912 138.56 37.56 137.664 36.856C136.8 36.12 136.16 35.192 135.744 34.072C135.36 32.92 135.12 31.704 135.024 30.424C134.992 30.2 134.976 29.976 134.976 29.752C134.976 29.496 134.976 29.256 134.976 29.032C134.976 27.72 135.104 26.312 135.36 24.808C135.648 23.304 136.112 21.896 136.752 20.584C137.392 19.24 138.24 18.152 139.296 17.32C140.352 16.488 141.648 16.072 143.184 16.072C144.112 16.072 144.864 16.44 145.44 17.176C146.048 17.88 146.352 18.696 146.352 19.624C146.352 20.616 146.192 21.352 145.872 21.832C145.552 22.28 145.168 22.504 144.72 22.504C143.952 22.504 143.568 21.688 143.568 20.056C143.568 19.416 143.472 18.824 143.28 18.28C143.088 17.736 142.72 17.464 142.176 17.464C141.568 17.464 141.056 17.768 140.64 18.376C140.256 18.952 139.936 19.704 139.68 20.632C139.424 21.528 139.216 22.488 139.056 23.512C138.928 24.504 138.832 25.448 138.768 26.344C138.736 27.208 138.72 27.88 138.72 28.36V28.552C138.72 29.832 138.848 31.032 139.104 32.152C139.36 33.272 139.792 34.168 140.4 34.84C141.008 35.512 141.824 35.848 142.848 35.848C144.736 35.848 146.144 34.248 147.072 31.048C147.168 30.664 147.344 30.472 147.6 30.472C147.824 30.472 147.936 30.696 147.936 31.144C147.936 31.368 147.888 31.656 147.792 32.008C147.28 33.768 146.496 35.192 145.44 36.28C144.384 37.368 142.976 37.912 141.216 37.912ZM153.3 37.192C152.148 37.192 151.236 36.824 150.564 36.088C149.892 35.352 149.396 34.472 149.076 33.448C148.756 32.392 148.564 31.416 148.5 30.52C148.436 29.656 148.388 28.744 148.356 27.784C148.324 26.792 148.308 25.752 148.308 24.664C148.308 22.68 148.356 20.632 148.452 18.52C148.58 16.408 148.756 14.36 148.98 12.376C149.236 10.36 149.54 8.568 149.892 7C150.084 6.2 150.388 5.288 150.804 4.264C151.22 3.24 151.764 2.36 152.436 1.624C153.108 0.855998 153.908 0.471998 154.836 0.471998C156.724 0.471998 157.668 1.896 157.668 4.744C157.668 5.864 157.476 7.48 157.092 9.592C156.74 11.672 156.084 14.008 155.124 16.6C154.644 17.944 154.068 19.304 153.396 20.68C152.756 22.024 152.116 23.256 151.476 24.376C151.444 24.632 151.428 24.904 151.428 25.192C151.428 25.448 151.428 25.704 151.428 25.96C151.428 27.048 151.46 28.152 151.524 29.272C151.62 30.392 151.764 31.432 151.956 32.392C152.18 33.32 152.484 34.072 152.868 34.648C153.252 35.224 153.748 35.512 154.356 35.512C155.06 35.512 155.62 35.224 156.036 34.648C156.484 34.04 156.82 33.464 157.044 32.92C157.172 32.632 157.284 32.312 157.38 31.96C157.508 31.608 157.636 31.24 157.764 30.856C157.892 30.504 158.068 30.328 158.292 30.328C158.452 30.328 158.532 30.504 158.532 30.856V30.952C158.532 31.176 158.484 31.464 158.388 31.816C158.324 32.168 158.228 32.52 158.1 32.872C157.716 34.056 157.156 35.08 156.42 35.944C155.684 36.776 154.644 37.192 153.3 37.192ZM151.524 22.312C152.356 20.616 153.124 18.824 153.828 16.936C154.532 15.016 155.092 13.128 155.508 11.272C155.956 9.416 156.18 7.736 156.18 6.232C156.18 5.304 156.1 4.536 155.94 3.928C155.812 3.32 155.556 3.016 155.172 3.016C154.82 3.016 154.484 3.384 154.164 4.12C153.876 4.824 153.604 5.768 153.348 6.952C153.092 8.136 152.852 9.416 152.628 10.792C152.436 12.136 152.26 13.48 152.1 14.824C151.972 16.136 151.86 17.304 151.764 18.328C151.7 19.32 151.652 20.04 151.62 20.488C151.62 20.68 151.604 20.936 151.572 21.256C151.572 21.544 151.556 21.896 151.524 22.312ZM165.454 37.912C163.918 37.912 162.67 37.448 161.71 36.52C160.782 35.56 160.094 34.392 159.646 33.016C159.23 31.608 159.022 30.232 159.022 28.888C159.022 27.352 159.182 25.816 159.502 24.28C159.822 22.712 160.318 21.288 160.99 20.008C161.694 18.728 162.574 17.704 163.63 16.936C164.686 16.136 165.934 15.736 167.374 15.736C168.398 15.736 169.198 16.04 169.774 16.648C170.35 17.256 170.638 18.152 170.638 19.336C170.638 20.936 170.238 22.36 169.438 23.608C168.67 24.824 167.694 25.816 166.51 26.584C165.326 27.352 164.094 27.88 162.814 28.168V28.408C162.814 29.72 162.942 30.952 163.198 32.104C163.486 33.224 163.934 34.136 164.542 34.84C165.182 35.512 166.014 35.848 167.038 35.848C168.286 35.848 169.246 35.336 169.918 34.312C170.59 33.256 171.118 31.928 171.502 30.328C171.534 30.2 171.582 30.088 171.646 29.992C171.742 29.864 171.822 29.8 171.886 29.8C172.174 29.8 172.302 30.008 172.27 30.424C172.174 31.288 171.982 32.104 171.694 32.872C171.406 33.64 171.102 34.296 170.782 34.84C170.174 35.832 169.438 36.584 168.574 37.096C167.742 37.64 166.702 37.912 165.454 37.912ZM162.862 27.064C163.886 26.808 164.782 26.312 165.55 25.576C166.318 24.808 166.91 23.912 167.326 22.888C167.774 21.864 167.998 20.824 167.998 19.768V19.528C167.998 18.952 167.902 18.408 167.71 17.896C167.55 17.384 167.23 17.128 166.75 17.128C166.174 17.128 165.662 17.416 165.214 17.992C164.798 18.536 164.43 19.24 164.11 20.104C163.822 20.968 163.582 21.864 163.39 22.792C163.198 23.72 163.054 24.568 162.958 25.336C162.894 26.104 162.862 26.664 162.862 27.016V27.064Z" fill="white"/>
<path d="M177.391 37.24C176.751 37.24 176.207 37.016 175.759 36.568C175.311 36.12 175.087 35.576 175.087 34.936C175.087 34.296 175.311 33.752 175.759 33.304C176.207 32.856 176.751 32.632 177.391 32.632C178.031 32.632 178.575 32.856 179.023 33.304C179.471 33.752 179.695 34.296 179.695 34.936C179.695 35.576 179.471 36.12 179.023 36.568C178.575 37.016 178.031 37.24 177.391 37.24Z" fill="#FF00EE"/>
</svg>
